{
  "accessors": [
    {
      "bufferView": 2,
      "componentType": 5126,
      "count": 52,
      "max": [
        0.86602544784545898,
        1,
        1
      ],
      "min": [
        -0.86602544784545898,
        -1,
        -1
      ],
      "type": "VEC3"
    },
    {
      "bufferView": 2,
      "byteOffset": 624,
      "componentType": 5126,
      "count": 52,
      "max": [
        1,
        0.86602544784545898,
        1
      ],
      "min": [
        -1,
        -0.86602544784545898,
        -1
      ],
      "type": "VEC3"
    },
    {
      "bufferView": 1,
      "componentType": 5126,
      "count": 52,
      "max": [
        1,
        1
      ],
      "min": [
        -8.9406967163085938e-08,
        0.01000000536441803
      ],
      "type": "VEC2"
    },
    {
      "bufferView": 0,
      "componentType": 5125,
      "count": 108,
      "max": [
        51
      ],
      "min": [
        0
      ],
      "type": "SCALAR"
    },
    {
      "bufferView": 2,
      "byteOffset": 1248,
      "componentType": 5126,
      "count": 44,
      "max": [
        0.69009298086166382,
        0.79685068130493164,
        2.5198731422424316
      ],
      "min": [
        -0.69009298086166382,
        -0.79685068130493164,
        1
      ],
      "type": "VEC3"
    },
    {
      "bufferView": 2,
      "byteOffset": 1776,
      "componentType": 5126,
      "count": 44,
      "max": [
        1,
        0.86602538824081421,
        1
      ],
      "min": [
        -1,
        -0.86602550745010376,
        0
      ],
      "type": "VEC3"
    },
    {
      "bufferView": 1,
      "byteOffset": 416,
      "componentType": 5126,
      "count": 44,
      "max": [
        0.4156222939491272,
        0.44124415516853333
      ],
      "min": [
        0.084377676248550415,
        0.058755841106176376
      ],
      "type": "VEC2"
    },
    {
      "bufferView": 0,
      "byteOffset": 432,
      "componentType": 5125,
      "count": 84,
      "max": [
        43
      ],
      "min": [
        0
      ],
      "type": "SCALAR"
    },
    {
      "bufferView": 2,
      "byteOffset": 2304,
      "componentType": 5126,
      "count": 72,
      "max": [
        0.26588517427444458,
        0.97863638401031494,
        -1
      ],
      "min": [
        -0.26588523387908936,
        -0.97863638401031494,
        -16.576162338256836
      ],
      "type": "VEC3"
    },
    {
      "bufferView": 2,
      "byteOffset": 3168,
      "componentType": 5126,
      "count": 72,
      "max": [
        1,
        0.47744622826576233,
        0.75687521696090698
      ],
      "min": [
        -1,
        -0.47744610905647278,
        -2.0082921992070624e-09
      ],
      "type": "VEC3"
    },
    {
      "bufferView": 1,
      "byteOffset": 768,
      "componentType": 5126,
      "count": 72,
      "max": [
        0.87054663896560669,
        0.38919526338577271
      ],
      "min": [
        0.62945342063903809,
        0.11080481112003326
      ],
      "type": "VEC2"
    },
    {
      "bufferView": 0,
      "byteOffset": 768,
      "componentType": 5125,
      "count": 108,
      "max": [
        71
      ],
      "min": [
        0
      ],
      "type": "SCALAR"
    },
    {
      "bufferView": 2,
      "byteOffset": 4032,
      "componentType": 5126,
      "count": 272,
      "max": [
        0.35941234230995178,
        1.225882887840271,
        -16.505756378173828
      ],
      "min": [
        -0.35937738418579102,
        -1.225882887840271,
        -18.575157165527344
      ],
      "type": "VEC3"
    },
    {
      "bufferView": 2,
      "byteOffset": 7296,
      "componentType": 5126,
      "count": 272,
      "max": [
        1,
        0.53516840934753418,
        1
      ],
      "min": [
        -1,
        -0.5351683497428894,
        -1
      ],
      "type": "VEC3"
    },
    {
      "bufferView": 1,
      "byteOffset": 1344,
      "componentType": 5126,
      "count": 272,
      "max": [
        0.87054663896560669,
        0.38919526338577271
      ],
      "min": [
        0.62945342063903809,
        0.11080481112003326
      ],
      "type": "VEC2"
    },
    {
      "bufferView": 0,
      "byteOffset": 1200,
      "componentType": 5125,
      "count": 414,
      "max": [
        271
      ],
      "min": [
        0
      ],
      "type": "SCALAR"
    },
    {
      "bufferView": 2,
      "byteOffset": 10560,
      "componentType": 5126,
      "count": 34,
      "max": [
        0.5655747652053833,
        0.46792584657669067,
        73.32208251953125
      ],
      "min": [
        -0.5655747652053833,
        -0.46792584657669067,
        2.5198731422424316
      ],
      "type": "VEC3"
    },
    {
      "bufferView": 2,
      "byteOffset": 10968,
      "componentType": 5126,
      "count": 34,
      "max": [
        0.63745778799057007,
        0.77048534154891968,
        0.028777224943041801
      ],
      "min": [
        -0.63745778799057007,
        -0.77048540115356445,
        -1
      ],
      "type": "VEC3"
    },
    {
      "bufferView": 1,
      "byteOffset": 3520,
      "componentType": 5126,
      "count": 34,
      "max": [
        0.38573786616325378,
        0.40673661231994629
      ],
      "min": [
        0.11426204442977905,
        0.093263335525989532
      ],
      "type": "VEC2"
    },
    {
      "bufferView": 0,
      "byteOffset": 2856,
      "componentType": 5125,
      "count": 42,
      "max": [
        33
      ],
      "min": [
        0
      ],
      "type": "SCALAR"
    }
  ],
  "asset": {
    "extras": {
      "author": "VillainRequiem (https://sketchfab.com/VillainRequiem)",
      "license": "CC-BY-NC-4.0 (http://creativecommons.org/licenses/by-nc/4.0/)",
      "source": "https://sketchfab.com/3d-models/a-heros-blade-c31f2eeb93f345b1a5677a4426901d46",
      "title": "A Hero's Blade"
    },
    "generator": "Sketchfab-7.71.0",
    "version": "2.0"
  },
  "bufferViews": [
    {
      "buffer": 0,
      "byteLength": 3024,
      "byteOffset": 0,
      "name": "floatBufferViews",
      "target": 34963
    },
    {
      "buffer": 0,
      "byteLength": 3792,
      "byteOffset": 3024,
      "byteStride": 8,
      "name": "floatBufferViews",
      "target": 34962
    },
    {
      "buffer": 0,
      "byteLength": 11376,
      "byteOffset": 6816,
      "byteStride": 12,
      "name": "floatBufferViews",
      "target": 34962
    }
  ],
  "buffers": [
    {
      "byteLength": 18192,
      "uri": "scene.bin"
    }
  ],
  "materials": [
    {
      "doubleSided": true,
      "emissiveFactor": [
        0,
        0,
        0
      ],
      "name": "Guard",
      "pbrMetallicRoughness": {
        "baseColorFactor": [
          0.43653799999999998,
          0.26805000000000001,
          0.0122326,
          1
        ],
        "metallicFactor": 0,
        "roughnessFactor": 0.93306764222030969
      }
    },
    {
      "doubleSided": true,
      "emissiveFactor": [
        0.027210000000000002,
        0.027210000000000002,
        0.027210000000000002
      ],
      "name": "Sheathe",
      "pbrMetallicRoughness": {
        "baseColorFactor": [
          0.12371,
          0.12371,
          0.12371,
          1
        ],
        "metallicFactor": 0,
        "roughnessFactor": 0.97256909479999998
      }
    },
    {
      "doubleSided": true,
      "emissiveFactor": [
        0,
        0,
        0
      ],
      "name": "Handle",
      "pbrMetallicRoughness": {
        "baseColorFactor": [
          0.184862,
          0.12481200000000001,
          0.072489300000000007,
          1
        ],
        "metallicFactor": 0,
        "roughnessFactor": 0.98361279960000003
      }
    },
    {
      "doubleSided": true,
      "emissiveFactor": [
        0,
        0,
        0
      ],
      "name": "Hilt",
      "pbrMetallicRoughness": {
        "baseColorFactor": [
          0.28424899999999997,
          0.45753199999999999,
          0.14440500000000001,
          1
        ],
        "metallicFactor": 0,
        "roughnessFactor": 0.87411470225584065
      }
    },
    {
      "doubleSided": true,
      "emissiveFactor": [
        0.012216899999999999,
        0.012216899999999999,
        0.012216899999999999
      ],
      "name": "Blade",
      "pbrMetallicRoughness": {
        "baseColorFactor": [
          0.429226,
          0.429226,
          0.429226,
          1
        ],
        "metallicFactor": 0,
        "roughnessFactor": 0.92669571474994417
      }
    }
  ],
  "meshes": [
    {
      "name": "Cylinder_Guard_0",
      "primitives": [
        {
          "attributes": {
            "NORMAL": 1,
            "POSITION": 0,
            "TEXCOORD_0": 2
          },
          "indices": 3,
          "material": 0,
          "mode": 4
        }
      ]
    },
    {
      "name": "Cylinder_Sheathe_0",
      "primitives": [
        {
          "attributes": {
            "NORMAL": 5,
            "POSITION": 4,
            "TEXCOORD_0": 6
          },
          "indices": 7,
          "material": 1,
          "mode": 4
        }
      ]
    },
    {
      "name": "Cylinder_Handle_0",
      "primitives": [
        {
          "attributes": {
            "NORMAL": 9,
            "POSITION": 8,
            "TEXCOORD_0": 10
          },
          "indices": 11,
          "material": 2,
          "mode": 4
        }
      ]
    },
    {
      "name": "Cylinder_Hilt_0",
      "primitives": [
        {
          "attributes": {
            "NORMAL": 13,
            "POSITION": 12,
            "TEXCOORD_0": 14
          },
          "indices": 15,
          "material": 3,
          "mode": 4
        }
      ]
    },
    {
      "name": "Cylinder_Blade_0",
      "primitives": [
        {
          "attributes": {
            "NORMAL": 17,
            "POSITION": 16,
            "TEXCOORD_0": 18
          },
          "indices": 19,
          "material": 4,
          "mode": 4
        }
      ]
    }
  ],
  "nodes": [
    {
      "children": [
        1
      ],
      "name": "RootNode (gltf orientation matrix)",
      "rotation": [
        -0.70710678118654746,
        -0,
        -0,
        0.70710678118654757
      ]
    },
    {
      "children": [
        2
      ],
      "name": "RootNode (model correction matrix)"
    },
    {
      "children": [
        3
      ],
      "matrix": [
        1,
        0,
        0,
        0,
        0,
        0,
        1,
        0,
        0,
        -1,
        0,
        0,
        0,
        0,
        0,
        1
      ],
      "name": "40b8516d79f147a194f008a6f903bec0.fbx"
    },
    {
      "children": [
        4
      ],
      "name": "RootNode"
    },
    {
      "children": [
        5,
        6,
        7,
        8,
        9
      ],
      "matrix": [
        412.00595092773438,
        0,
        0,
        0,
        0,
        -1.6292067939183141e-05,
        -99.999999999998678,
        0,
        0,
        52.576911926268835,
        -8.5658662113523157e-06,
        0,
        0,
        0,
        0,
        1
      ],
      "name": "Cylinder"
    },
    {
      "mesh": 0,
      "name": "Cylinder_Guard_0"
    },
    {
      "mesh": 1,
      "name": "Cylinder_Sheathe_0"
    },
    {
      "mesh": 2,
      "name": "Cylinder_Handle_0"
    },
    {
      "mesh": 3,
      "name": "Cylinder_Hilt_0"
    },
    {
      "mesh": 4,
      "name": "Cylinder_Blade_0"
    }
  ],
  "scene": 0,
  "scenes": [
    {
      "name": "OSG_Scene",
      "nodes": [
        0
      ]
    }
  ]
}

